<svg xmlns="http://www.w3.org/2000/svg" viewBox="0 0 24 24" fill="currentColor" aria-hidden="true">
  <path d="M12 2C6.477 2 2 6.477 2 12c0 1.89.525 3.66 1.438 5.168L2 22l4.978-1.417A9.953 9.953 0 0 0 12 22c5.523 0 10-4.477 10-10S17.523 2 12 2Zm5.2 14.2c-.22.62-1.27 1.18-1.75 1.22-.45.04-.87.2-2.93-.61-2.48-1-4.06-3.53-4.18-3.7-.12-.16-.97-1.29-.97-2.46 0-1.17.61-1.74.83-1.98.22-.24.48-.3.64-.3l.46.01c.15 0 .35-.06.54.42.2.5.68 1.67.74 1.79.06.12.1.26.02.42-.08.16-.12.26-.24.4l-.36.42c-.12.12-.24.25-.1.49.14.24.62.97 1.33 1.57.91.78 1.68 1.02 1.92 1.14.24.12.38.1.52-.06.14-.16.6-.7.76-.94.16-.24.32-.2.54-.12l1.71.81c.2.1.33.14.38.22.05.09.05.5-.15 1.12Z"/>
</svg>
